<svg id="Capa_1" data-name="Capa 1" xmlns="http://www.w3.org/2000/svg" viewBox="0 0 438.55 427.82"><defs><style>.cls-1{fill:#3d3d3b;}</style></defs><path class="cls-1" d="M409.13,114.57a218.36,218.36,0,0,0-79.8-79.8Q278.95,5.37,219.27,5.36T109.21,34.77a218.36,218.36,0,0,0-79.8,79.8Q0,165,0,224.63,0,296.3,41.83,353.54t108.06,79.22q7.71,1.44,11.42-2A11.2,11.2,0,0,0,165,422.2q0-.85-.14-15.41t-.15-25.41l-6.56,1.14a84.57,84.57,0,0,1-15.85,1,121.07,121.07,0,0,1-19.84-2A44.33,44.33,0,0,1,103.35,373,36.17,36.17,0,0,1,90.79,355.4l-2.86-6.57a71.54,71.54,0,0,0-9-14.56q-6.14-8-12.42-10.84l-2-1.43a20.93,20.93,0,0,1-3.71-3.43,15.77,15.77,0,0,1-2.57-4q-.85-2,1.43-3.29C61.2,310.42,64,310,68,310l5.71.85q5.72,1.14,14.13,6.85a46.07,46.07,0,0,1,13.85,14.84q6.57,11.71,15.84,17.85t18.7,6.13a81.05,81.05,0,0,0,16.28-1.42,56.82,56.82,0,0,0,12.84-4.28q2.58-19.14,14-29.41A195.71,195.71,0,0,1,150,316.28a116.87,116.87,0,0,1-26.84-11.14,77,77,0,0,1-23-19.13q-9.13-11.42-15-30T79.37,213.2q0-34.55,22.56-58.81-10.58-26,2-58.24,8.28-2.58,24.56,3.85t23.84,11q7.56,4.58,12.13,7.71a206.22,206.22,0,0,1,109.64,0l10.85-6.85A154,154,0,0,1,311.2,99.29q15.14-5.72,23.14-3.14,12.84,32.26,2.28,58.24,22.54,24.27,22.56,58.82,0,24.27-5.86,43t-15.12,30a79.89,79.89,0,0,1-23.13,19,116.73,116.73,0,0,1-26.84,11.13A194.75,194.75,0,0,1,259,321.42q14.85,12.84,14.85,40.54V422.2a11.37,11.37,0,0,0,3.57,8.56q3.57,3.42,11.27,2,66.26-22,108.07-79.22t41.83-128.91Q438.54,165,409.13,114.57Z" transform="translate(0 -5.36)"/></svg>