<svg id="Layer_1" data-name="Layer 1" xmlns="http://www.w3.org/2000/svg" viewBox="0 0 283.46 198.1"><defs><style>.cls-1{fill:#3d3d3b;}.cls-2{fill:#fff;}</style></defs><path class="cls-1" d="M277.54,73.62a35.45,35.45,0,0,0-25.06-25c-22.11-5.92-110.75-5.92-110.75-5.92S53.09,42.68,31,48.6a35.47,35.47,0,0,0-25.06,25C0,95.69,0,141.73,0,141.73s0,46.05,5.92,68.12a35.5,35.5,0,0,0,25.06,25c22.11,5.91,110.75,5.91,110.75,5.91s88.64,0,110.75-5.91a35.48,35.48,0,0,0,25.06-25c5.92-22.07,5.92-68.12,5.92-68.12S283.46,95.69,277.54,73.62Z" transform="translate(0 -42.68)"/><polygon class="cls-2" points="113.39 141.5 113.39 56.6 187.03 99.05 113.39 141.5"/></svg>